<mxfile host="app.diagrams.net" modified="2024-06-12T13:34:01.128Z" agent="Mozilla/5.0 (Windows NT 10.0; Win64; x64; rv:127.0) Gecko/20100101 Firefox/127.0" etag="7gzJDPkzTh9fsEOZvnqq" version="24.5.3" type="device">
  <diagram name="Page-1" id="9f46799a-70d6-7492-0946-bef42562c5a5">
    <mxGraphModel dx="1728" dy="921" grid="1" gridSize="10" guides="1" tooltips="1" connect="1" arrows="1" fold="1" page="1" pageScale="1" pageWidth="827" pageHeight="1169" background="none" math="0" shadow="0">
      <root>
        <mxCell id="0" />
        <mxCell id="1" parent="0" />
        <mxCell id="koRFOtenKINEVcMNW17l-31" style="edgeStyle=orthogonalEdgeStyle;rounded=0;orthogonalLoop=1;jettySize=auto;html=1;entryX=0.5;entryY=0;entryDx=0;entryDy=0;" edge="1" parent="1" source="78961159f06e98e8-17" target="koRFOtenKINEVcMNW17l-13">
          <mxGeometry relative="1" as="geometry" />
        </mxCell>
        <mxCell id="koRFOtenKINEVcMNW17l-33" value="Uses" style="edgeLabel;html=1;align=center;verticalAlign=middle;resizable=0;points=[];" vertex="1" connectable="0" parent="koRFOtenKINEVcMNW17l-31">
          <mxGeometry x="0.2148" y="5" relative="1" as="geometry">
            <mxPoint x="-1" y="3" as="offset" />
          </mxGeometry>
        </mxCell>
        <mxCell id="78961159f06e98e8-17" value="Message" style="swimlane;html=1;fontStyle=1;align=center;verticalAlign=top;childLayout=stackLayout;horizontal=1;startSize=37;horizontalStack=0;resizeParent=1;resizeLast=0;collapsible=1;marginBottom=0;swimlaneFillColor=#ffffff;rounded=0;shadow=0;comic=0;labelBackgroundColor=none;strokeWidth=1;fillColor=none;fontFamily=Verdana;fontSize=16;" parent="1" vertex="1">
          <mxGeometry width="330" height="470" as="geometry" />
        </mxCell>
        <mxCell id="78961159f06e98e8-21" value="+ int: idCounter" style="text;html=1;strokeColor=none;fillColor=none;align=left;verticalAlign=top;spacingLeft=4;spacingRight=4;whiteSpace=wrap;overflow=hidden;rotatable=0;points=[[0,0.5],[1,0.5]];portConstraint=eastwest;fontSize=16;" parent="78961159f06e98e8-17" vertex="1">
          <mxGeometry y="37" width="330" height="26" as="geometry" />
        </mxCell>
        <mxCell id="78961159f06e98e8-23" value="+ int: id" style="text;html=1;strokeColor=none;fillColor=none;align=left;verticalAlign=top;spacingLeft=4;spacingRight=4;whiteSpace=wrap;overflow=hidden;rotatable=0;points=[[0,0.5],[1,0.5]];portConstraint=eastwest;fontSize=16;" parent="78961159f06e98e8-17" vertex="1">
          <mxGeometry y="63" width="330" height="26" as="geometry" />
        </mxCell>
        <mxCell id="78961159f06e98e8-25" value="+ String: senderRandom" style="text;html=1;strokeColor=none;fillColor=none;align=left;verticalAlign=top;spacingLeft=4;spacingRight=4;whiteSpace=wrap;overflow=hidden;rotatable=0;points=[[0,0.5],[1,0.5]];portConstraint=eastwest;fontSize=16;" parent="78961159f06e98e8-17" vertex="1">
          <mxGeometry y="89" width="330" height="26" as="geometry" />
        </mxCell>
        <mxCell id="78961159f06e98e8-26" value="+ String: sender" style="text;html=1;strokeColor=none;fillColor=none;align=left;verticalAlign=top;spacingLeft=4;spacingRight=4;whiteSpace=wrap;overflow=hidden;rotatable=0;points=[[0,0.5],[1,0.5]];portConstraint=eastwest;fontSize=16;" parent="78961159f06e98e8-17" vertex="1">
          <mxGeometry y="115" width="330" height="26" as="geometry" />
        </mxCell>
        <mxCell id="78961159f06e98e8-24" value="+ Date: timeSent" style="text;html=1;strokeColor=none;fillColor=none;align=left;verticalAlign=top;spacingLeft=4;spacingRight=4;whiteSpace=wrap;overflow=hidden;rotatable=0;points=[[0,0.5],[1,0.5]];portConstraint=eastwest;fontSize=16;" parent="78961159f06e98e8-17" vertex="1">
          <mxGeometry y="141" width="330" height="26" as="geometry" />
        </mxCell>
        <mxCell id="koRFOtenKINEVcMNW17l-1" value="+ Date: timeReceived" style="text;html=1;strokeColor=none;fillColor=none;align=left;verticalAlign=top;spacingLeft=4;spacingRight=4;whiteSpace=wrap;overflow=hidden;rotatable=0;points=[[0,0.5],[1,0.5]];portConstraint=eastwest;fontSize=16;" vertex="1" parent="78961159f06e98e8-17">
          <mxGeometry y="167" width="330" height="26" as="geometry" />
        </mxCell>
        <mxCell id="koRFOtenKINEVcMNW17l-2" value="+ String: dataToAchieveMessageSize" style="text;html=1;strokeColor=none;fillColor=none;align=left;verticalAlign=top;spacingLeft=4;spacingRight=4;whiteSpace=wrap;overflow=hidden;rotatable=0;points=[[0,0.5],[1,0.5]];portConstraint=eastwest;fontSize=16;" vertex="1" parent="78961159f06e98e8-17">
          <mxGeometry y="193" width="330" height="26" as="geometry" />
        </mxCell>
        <mxCell id="koRFOtenKINEVcMNW17l-4" value="+ Location: sentLocation" style="text;html=1;strokeColor=none;fillColor=none;align=left;verticalAlign=top;spacingLeft=4;spacingRight=4;whiteSpace=wrap;overflow=hidden;rotatable=0;points=[[0,0.5],[1,0.5]];portConstraint=eastwest;fontSize=16;" vertex="1" parent="78961159f06e98e8-17">
          <mxGeometry y="219" width="330" height="26" as="geometry" />
        </mxCell>
        <mxCell id="koRFOtenKINEVcMNW17l-6" value="+ Location: receivedLocation" style="text;html=1;strokeColor=none;fillColor=none;align=left;verticalAlign=top;spacingLeft=4;spacingRight=4;whiteSpace=wrap;overflow=hidden;rotatable=0;points=[[0,0.5],[1,0.5]];portConstraint=eastwest;fontSize=16;" vertex="1" parent="78961159f06e98e8-17">
          <mxGeometry y="245" width="330" height="26" as="geometry" />
        </mxCell>
        <mxCell id="koRFOtenKINEVcMNW17l-5" value="+ float: distanceBetweenLocations" style="text;html=1;strokeColor=none;fillColor=none;align=left;verticalAlign=top;spacingLeft=4;spacingRight=4;whiteSpace=wrap;overflow=hidden;rotatable=0;points=[[0,0.5],[1,0.5]];portConstraint=eastwest;fontSize=16;" vertex="1" parent="78961159f06e98e8-17">
          <mxGeometry y="271" width="330" height="26" as="geometry" />
        </mxCell>
        <mxCell id="78961159f06e98e8-19" value="" style="line;html=1;strokeWidth=1;fillColor=none;align=left;verticalAlign=middle;spacingTop=-1;spacingLeft=3;spacingRight=3;rotatable=0;labelPosition=right;points=[];portConstraint=eastwest;fontSize=16;" parent="78961159f06e98e8-17" vertex="1">
          <mxGeometry y="297" width="330" height="8" as="geometry" />
        </mxCell>
        <mxCell id="78961159f06e98e8-20" value="+ Message(int): Message" style="text;html=1;strokeColor=none;fillColor=none;align=left;verticalAlign=top;spacingLeft=4;spacingRight=4;whiteSpace=wrap;overflow=hidden;rotatable=0;points=[[0,0.5],[1,0.5]];portConstraint=eastwest;fontSize=16;" parent="78961159f06e98e8-17" vertex="1">
          <mxGeometry y="305" width="330" height="26" as="geometry" />
        </mxCell>
        <mxCell id="78961159f06e98e8-27" value="+ Message(String): Message" style="text;html=1;strokeColor=none;fillColor=none;align=left;verticalAlign=top;spacingLeft=4;spacingRight=4;whiteSpace=wrap;overflow=hidden;rotatable=0;points=[[0,0.5],[1,0.5]];portConstraint=eastwest;fontSize=16;" parent="78961159f06e98e8-17" vertex="1">
          <mxGeometry y="331" width="330" height="26" as="geometry" />
        </mxCell>
        <mxCell id="koRFOtenKINEVcMNW17l-8" value="+ setSentLocationAsCurrent(): void" style="text;html=1;strokeColor=none;fillColor=none;align=left;verticalAlign=top;spacingLeft=4;spacingRight=4;whiteSpace=wrap;overflow=hidden;rotatable=0;points=[[0,0.5],[1,0.5]];portConstraint=eastwest;fontSize=16;" vertex="1" parent="78961159f06e98e8-17">
          <mxGeometry y="357" width="330" height="26" as="geometry" />
        </mxCell>
        <mxCell id="koRFOtenKINEVcMNW17l-9" value="+ setReceivedLocationAsCurrent(): void" style="text;html=1;strokeColor=none;fillColor=none;align=left;verticalAlign=top;spacingLeft=4;spacingRight=4;whiteSpace=wrap;overflow=hidden;rotatable=0;points=[[0,0.5],[1,0.5]];portConstraint=eastwest;fontSize=16;" vertex="1" parent="78961159f06e98e8-17">
          <mxGeometry y="383" width="330" height="27" as="geometry" />
        </mxCell>
        <mxCell id="koRFOtenKINEVcMNW17l-12" value="+ toJson(): JSONObject" style="text;html=1;strokeColor=none;fillColor=none;align=left;verticalAlign=top;spacingLeft=4;spacingRight=4;whiteSpace=wrap;overflow=hidden;rotatable=0;points=[[0,0.5],[1,0.5]];portConstraint=eastwest;fontSize=16;" vertex="1" parent="78961159f06e98e8-17">
          <mxGeometry y="410" width="330" height="27" as="geometry" />
        </mxCell>
        <mxCell id="koRFOtenKINEVcMNW17l-11" value="+ equals(): boolean" style="text;html=1;strokeColor=none;fillColor=none;align=left;verticalAlign=top;spacingLeft=4;spacingRight=4;whiteSpace=wrap;overflow=hidden;rotatable=0;points=[[0,0.5],[1,0.5]];portConstraint=eastwest;fontSize=16;" vertex="1" parent="78961159f06e98e8-17">
          <mxGeometry y="437" width="330" height="33" as="geometry" />
        </mxCell>
        <mxCell id="koRFOtenKINEVcMNW17l-13" value="static LocationManager" style="swimlane;html=1;fontStyle=1;align=center;verticalAlign=top;childLayout=stackLayout;horizontal=1;startSize=37;horizontalStack=0;resizeParent=1;resizeLast=0;collapsible=1;marginBottom=0;swimlaneFillColor=#ffffff;rounded=0;shadow=0;comic=0;labelBackgroundColor=none;strokeWidth=1;fillColor=none;fontFamily=Verdana;fontSize=16;" vertex="1" parent="1">
          <mxGeometry x="497" y="140" width="330" height="300" as="geometry" />
        </mxCell>
        <mxCell id="koRFOtenKINEVcMNW17l-14" value="+ Location: currentLocation" style="text;html=1;strokeColor=none;fillColor=none;align=left;verticalAlign=top;spacingLeft=4;spacingRight=4;whiteSpace=wrap;overflow=hidden;rotatable=0;points=[[0,0.5],[1,0.5]];portConstraint=eastwest;fontSize=16;" vertex="1" parent="koRFOtenKINEVcMNW17l-13">
          <mxGeometry y="37" width="330" height="26" as="geometry" />
        </mxCell>
        <mxCell id="koRFOtenKINEVcMNW17l-15" value="+ FusedLocationProviderClient: fusedLocationClient" style="text;html=1;strokeColor=none;fillColor=none;align=left;verticalAlign=top;spacingLeft=4;spacingRight=4;whiteSpace=wrap;overflow=hidden;rotatable=0;points=[[0,0.5],[1,0.5]];portConstraint=eastwest;fontSize=16;" vertex="1" parent="koRFOtenKINEVcMNW17l-13">
          <mxGeometry y="63" width="330" height="47" as="geometry" />
        </mxCell>
        <mxCell id="koRFOtenKINEVcMNW17l-16" value="+ boolean: locationEnabled" style="text;html=1;strokeColor=none;fillColor=none;align=left;verticalAlign=top;spacingLeft=4;spacingRight=4;whiteSpace=wrap;overflow=hidden;rotatable=0;points=[[0,0.5],[1,0.5]];portConstraint=eastwest;fontSize=16;" vertex="1" parent="koRFOtenKINEVcMNW17l-13">
          <mxGeometry y="110" width="330" height="26" as="geometry" />
        </mxCell>
        <mxCell id="koRFOtenKINEVcMNW17l-24" value="" style="line;html=1;strokeWidth=1;fillColor=none;align=left;verticalAlign=middle;spacingTop=-1;spacingLeft=3;spacingRight=3;rotatable=0;labelPosition=right;points=[];portConstraint=eastwest;fontSize=16;" vertex="1" parent="koRFOtenKINEVcMNW17l-13">
          <mxGeometry y="136" width="330" height="8" as="geometry" />
        </mxCell>
        <mxCell id="koRFOtenKINEVcMNW17l-25" value="+ isLocationEnabled(): boolean" style="text;html=1;strokeColor=none;fillColor=none;align=left;verticalAlign=top;spacingLeft=4;spacingRight=4;whiteSpace=wrap;overflow=hidden;rotatable=0;points=[[0,0.5],[1,0.5]];portConstraint=eastwest;fontSize=16;" vertex="1" parent="koRFOtenKINEVcMNW17l-13">
          <mxGeometry y="144" width="330" height="26" as="geometry" />
        </mxCell>
        <mxCell id="koRFOtenKINEVcMNW17l-26" value="+ setLocationEnabled(boolean): void" style="text;html=1;strokeColor=none;fillColor=none;align=left;verticalAlign=top;spacingLeft=4;spacingRight=4;whiteSpace=wrap;overflow=hidden;rotatable=0;points=[[0,0.5],[1,0.5]];portConstraint=eastwest;fontSize=16;" vertex="1" parent="koRFOtenKINEVcMNW17l-13">
          <mxGeometry y="170" width="330" height="26" as="geometry" />
        </mxCell>
        <mxCell id="koRFOtenKINEVcMNW17l-27" value="+ getCurrentLocation(): Location" style="text;html=1;strokeColor=none;fillColor=none;align=left;verticalAlign=top;spacingLeft=4;spacingRight=4;whiteSpace=wrap;overflow=hidden;rotatable=0;points=[[0,0.5],[1,0.5]];portConstraint=eastwest;fontSize=16;" vertex="1" parent="koRFOtenKINEVcMNW17l-13">
          <mxGeometry y="196" width="330" height="26" as="geometry" />
        </mxCell>
        <mxCell id="koRFOtenKINEVcMNW17l-28" value="+ getLastKnownLocation(): Location" style="text;html=1;strokeColor=none;fillColor=none;align=left;verticalAlign=top;spacingLeft=4;spacingRight=4;whiteSpace=wrap;overflow=hidden;rotatable=0;points=[[0,0.5],[1,0.5]];portConstraint=eastwest;fontSize=16;" vertex="1" parent="koRFOtenKINEVcMNW17l-13">
          <mxGeometry y="222" width="330" height="27" as="geometry" />
        </mxCell>
        <mxCell id="koRFOtenKINEVcMNW17l-29" value="+ distanceBetweenLocations(Location, Location): float" style="text;html=1;strokeColor=none;fillColor=none;align=left;verticalAlign=top;spacingLeft=4;spacingRight=4;whiteSpace=wrap;overflow=hidden;rotatable=0;points=[[0,0.5],[1,0.5]];portConstraint=eastwest;fontSize=16;" vertex="1" parent="koRFOtenKINEVcMNW17l-13">
          <mxGeometry y="249" width="330" height="51" as="geometry" />
        </mxCell>
      </root>
    </mxGraphModel>
  </diagram>
</mxfile>
